<svg width="12" height="13" viewBox="0 0 12 13" fill="none" xmlns="http://www.w3.org/2000/svg">
<mask id="mask0_229_1276" style="mask-type:alpha" maskUnits="userSpaceOnUse" x="0" y="1" width="12" height="11">
<path fill-rule="evenodd" clip-rule="evenodd" d="M0.96967 1.46974C1.26256 1.17685 1.73744 1.17685 2.03033 1.46974L11.0303 10.4696C11.3232 10.7625 11.3232 11.2374 11.0303 11.5302C10.7374 11.8231 10.2626 11.8231 9.96967 11.5302L0.96967 2.53039C0.676777 2.2375 0.676777 1.76263 0.96967 1.46974Z" fill="#006FFD"/>
<path fill-rule="evenodd" clip-rule="evenodd" d="M11.0303 1.46974C10.7374 1.17685 10.2626 1.17685 9.96967 1.46974L0.96967 10.4696C0.676777 10.7625 0.676777 11.2374 0.96967 11.5302C1.26256 11.8231 1.73744 11.8231 2.03033 11.5302L11.0303 2.53039C11.3232 2.2375 11.3232 1.76263 11.0303 1.46974Z" fill="#006FFD"/>
</mask>
<g mask="url(#mask0_229_1276)">
<rect y="0.500092" width="12" height="11.9998" fill="#71727A"/>
</g>
</svg>
