<svg width="24" height="25" viewBox="0 0 24 25" fill="none" xmlns="http://www.w3.org/2000/svg">
<mask id="mask0_229_1284" style="mask-type:alpha" maskUnits="userSpaceOnUse" x="1" y="1" width="22" height="23">
<ellipse cx="12.0002" cy="12.5" rx="11.0002" ry="11" fill="#D9D9D9"/>
</mask>
<g mask="url(#mask0_229_1284)">
<rect y="0.5" width="24.0004" height="24" fill="#FFB37C"/>
</g>
<path d="M11.4474 6.56003C11.6217 6.48327 11.8101 6.44372 12.0006 6.44388C12.1909 6.44392 12.3791 6.48364 12.5532 6.56048C12.7273 6.63732 12.8835 6.74961 13.0118 6.89018C13.1401 7.03075 13.2377 7.19652 13.2983 7.37691C13.359 7.5573 13.3814 7.74835 13.3641 7.93788L12.8181 13.9469C12.7968 14.1489 12.7015 14.3359 12.5506 14.4718C12.3996 14.6078 12.2037 14.683 12.0006 14.683C11.7974 14.683 11.6015 14.6078 11.4505 14.4718C11.2996 14.3359 11.2043 14.1489 11.1831 13.9469L10.6356 7.93788C10.6182 7.74823 10.6407 7.55705 10.7014 7.37656C10.7622 7.19606 10.8599 7.03022 10.9883 6.88963C11.1168 6.74904 11.2732 6.63678 11.4474 6.56003Z" fill="white"/>
<path d="M13.3091 17.2476C13.3091 17.9703 12.7233 18.5561 12.0006 18.5561C11.278 18.5561 10.6921 17.9703 10.6921 17.2476C10.6921 16.525 11.278 15.9392 12.0006 15.9392C12.7233 15.9392 13.3091 16.525 13.3091 17.2476Z" fill="white"/>
</svg>
